<svg width="266" height="267" viewBox="0 0 266 267" fill="none" xmlns="http://www.w3.org/2000/svg">
<path d="M83.1911 124.995C89.5789 117.255 89.6095 117.154 88.6559 116.247C87.3276 114.984 81.2857 115.335 80.8216 116.71C80.8233 116.776 79.3725 118.575 77.6643 120.712C67.1866 133.708 66.8438 134.615 72.2601 134.512C75.3831 134.433 75.6424 134.161 83.1911 124.995Z" fill="#033F47"/>
<path d="M97.9701 129.709C100.352 130.547 103.239 127.715 112.899 115.238C115.86 111.374 114.989 109.767 110.427 110.812C107.452 111.486 106.186 112.681 101.432 119.317C96.0977 126.632 95.3877 128.81 97.9701 129.709Z" fill="#033F47"/>
<path d="M141.953 105.965C139.399 103.536 134.889 106.641 128.946 114.869C124.513 121.031 124.004 123.271 126.91 123.83C130.883 124.495 144.508 108.394 141.953 105.965Z" fill="#033F47"/>
<path d="M112.921 89.7057C113.142 86.6084 107.159 86.6258 104.543 89.7168C104.092 90.2601 102.058 92.6715 99.9936 95.1835C93.0893 103.535 92.504 105.379 96.799 105.636C99.5284 105.767 112.732 92.7689 112.921 89.7057Z" fill="#033F47"/>
<path d="M118.785 133.873C117.355 132.513 111.726 134.749 109.798 137.391C109.67 137.593 108.511 139.085 107.256 140.746C100.689 149.288 100.13 153.491 105.814 152.152C109.019 151.373 120.386 135.396 118.785 133.873Z" fill="#033F47"/>
<path d="M141.216 80.6166C138.968 78.4789 134.053 81.3285 129.516 87.3269C124.466 94.0695 123.346 97.09 125.817 97.5598C128.889 98.0809 143.123 82.4303 141.216 80.6166Z" fill="#033F47"/>
<path d="M136.56 145.33C138.688 142.683 141.882 138.846 143.56 136.809C146.981 132.734 147.021 131.669 143.678 132.252C140.865 132.755 129.956 143.135 127.543 147.651C123.765 154.76 130.206 153.102 136.56 145.33Z" fill="#033F47"/>
<path d="M107.496 170.096C102.045 178.078 101.343 181.886 105.572 180.849C109.437 179.854 121.207 162.703 118.368 162.209C115.029 161.629 111.633 164.041 107.496 170.096Z" fill="#033F47"/>
<path d="M87.7034 147.121C86.6816 146.15 83.9915 146.251 82.6535 147.248C80.4344 148.9 69.0729 161.12 67.9901 163.009C65.2498 167.732 72.9401 168.171 75.1325 165.456C75.2604 165.253 89.1339 148.482 87.7034 147.121Z" fill="#033F47"/>
<path d="M191.202 135.543C189.669 138.042 191.532 139.424 195.602 138.69C196.993 138.456 207.206 125.533 207.136 124.039C207.069 120.084 195.576 128.352 191.202 135.543Z" fill="#033F47"/>
<path d="M169.59 75.9481C167 76.0797 154.663 86.5292 155.071 88.2145C155.512 89.8656 159.138 91.3039 165.286 84.567C171.791 77.5218 172.977 75.7964 169.59 75.9481Z" fill="#033F47"/>
<path d="M170.475 99.2312C169.214 99.3294 157.125 111.701 153.947 116.202C151.251 120.06 151.501 122.049 154.563 120.875C156.474 120.162 158.458 117.12 170.165 102.763C172.55 99.7775 172.632 99.0773 170.475 99.2312Z" fill="#033F47"/>
<path d="M171.539 127.03C170.259 127.694 164.456 133.591 162.042 136.744C156.536 143.83 155.71 146.677 159.098 146.591C161.225 146.538 162.391 145.312 168.619 136.512C171.251 132.789 173.921 129.231 174.504 128.618C176.124 126.915 173.999 125.738 171.539 127.03Z" fill="#033F47"/>
<path d="M147.784 158.012C145.565 159.664 136.012 169.777 134.732 171.738C131.342 177.076 139.556 175.872 141.063 173.673C144.045 169.309 150.478 160.704 152 159.103C154.753 156.208 151.373 155.329 147.784 158.012Z" fill="#033F47"/>
<path d="M177.211 155.577C175.32 155.724 164.423 165.273 162.639 168.376C160.22 172.626 166.124 173.442 169.278 169.306C171.853 165.917 175.293 161.276 177.72 158.656C179.793 156.476 179.6 155.384 177.211 155.577Z" fill="#033F47"/>
</svg>
