<svg width="266" height="267" viewBox="0 0 266 267" fill="none" xmlns="http://www.w3.org/2000/svg">
<path d="M83.1911 124.761C89.5789 117.02 89.6095 116.92 88.6559 116.013C87.3276 114.75 81.2857 115.101 80.8216 116.476C80.8233 116.542 79.3725 118.34 77.6643 120.478C67.1866 133.474 66.8438 134.38 72.2601 134.277C75.3831 134.199 75.6424 133.926 83.1911 124.761Z" fill="#F8F8F1"/>
<path d="M97.9701 129.475C100.352 130.313 103.239 127.481 112.899 115.004C115.86 111.14 114.989 109.533 110.427 110.578C107.452 111.251 106.186 112.447 101.432 119.082C96.0977 126.397 95.3877 128.576 97.9701 129.475Z" fill="#F8F8F1"/>
<path d="M141.953 105.731C139.399 103.301 134.889 106.407 128.946 114.635C124.513 120.797 124.004 123.037 126.91 123.595C130.883 124.26 144.508 108.16 141.953 105.731Z" fill="#F8F8F1"/>
<path d="M112.921 89.4713C113.142 86.374 107.159 86.3915 104.543 89.4825C104.092 90.0257 102.058 92.4371 99.9936 94.9491C93.0893 103.301 92.504 105.144 96.799 105.402C99.5284 105.533 112.732 92.5346 112.921 89.4713Z" fill="#F8F8F1"/>
<path d="M118.785 133.639C117.355 132.279 111.726 134.515 109.798 137.156C109.67 137.359 108.511 138.851 107.256 140.511C100.689 149.054 100.13 153.257 105.814 151.917C109.019 151.138 120.386 135.161 118.785 133.639Z" fill="#F8F8F1"/>
<path d="M141.216 80.3822C138.968 78.2446 134.053 81.0941 129.516 87.0925C124.466 93.8351 123.346 96.8556 125.817 97.3254C128.889 97.8466 143.123 82.1959 141.216 80.3822Z" fill="#F8F8F1"/>
<path d="M136.56 145.095C138.688 142.449 141.882 138.612 143.56 136.575C146.981 132.499 147.021 131.435 143.678 132.017C140.865 132.52 129.956 142.901 127.543 147.416C123.765 154.526 130.206 152.868 136.56 145.095Z" fill="#F8F8F1"/>
<path d="M107.496 169.861C102.045 177.844 101.343 181.652 105.572 180.614C109.437 179.62 121.207 162.469 118.368 161.975C115.029 161.394 111.633 163.807 107.496 169.861Z" fill="#F8F8F1"/>
<path d="M87.7034 146.887C86.6816 145.915 83.9915 146.016 82.6535 147.014C80.4344 148.666 69.0729 160.886 67.9901 162.775C65.2498 167.498 72.9401 167.936 75.1325 165.222C75.2604 165.019 89.1339 148.247 87.7034 146.887Z" fill="#F8F8F1"/>
<path d="M191.202 135.309C189.669 137.807 191.532 139.19 195.602 138.456C196.993 138.222 207.206 125.299 207.136 123.804C207.069 119.85 195.576 128.118 191.202 135.309Z" fill="#F8F8F1"/>
<path d="M169.59 75.7137C167 75.8453 154.663 86.2949 155.071 87.9801C155.512 89.6312 159.138 91.0696 165.286 84.3326C171.791 77.2874 172.977 75.5621 169.59 75.7137Z" fill="#F8F8F1"/>
<path d="M170.475 98.9968C169.214 99.095 157.125 111.467 153.947 115.968C151.251 119.826 151.501 121.814 154.563 120.64C156.474 119.927 158.458 116.885 170.165 102.529C172.55 99.5431 172.632 98.8429 170.475 98.9968Z" fill="#F8F8F1"/>
<path d="M171.539 126.796C170.259 127.459 164.456 133.357 162.042 136.509C156.536 143.596 155.71 146.442 159.098 146.357C161.225 146.303 162.391 145.077 168.619 136.277C171.251 132.554 173.921 128.996 174.504 128.383C176.124 126.68 173.999 125.504 171.539 126.796Z" fill="#F8F8F1"/>
<path d="M147.784 157.778C145.565 159.429 136.012 169.543 134.732 171.503C131.342 176.841 139.556 175.637 141.063 173.439C144.045 169.075 150.478 160.469 152 158.868C154.753 155.973 151.373 155.094 147.784 157.778Z" fill="#F8F8F1"/>
<path d="M177.211 155.342C175.32 155.49 164.423 165.039 162.639 168.142C160.22 172.392 166.124 173.207 169.278 169.072C171.853 165.683 175.293 161.042 177.72 158.421C179.793 156.241 179.6 155.149 177.211 155.342Z" fill="#F8F8F1"/>
</svg>
