<svg width="81" height="93" viewBox="0 0 81 93" fill="none" xmlns="http://www.w3.org/2000/svg">
<path d="M34.6645 33.613C36.5993 32.1143 47.3903 24.784 49.3523 23.6668C51.0145 22.7403 51.396 22.3863 51.7503 21.4598C52.704 18.9254 54.1755 10.6413 54.7478 4.53728C55.0475 1.51253 53.14 -0.122303 50.7693 1.15845C50.2515 1.43095 48.78 2.1667 47.4993 2.79345C46.2185 3.39295 42.5125 5.73645 39.2425 7.97095C31.9123 13.0122 32.1303 10.5052 30.8768 23.0948C30.6043 26.0106 28.4515 38.4363 34.6645 33.613ZM35.7818 16.5818C35.7818 15.7098 36.7083 14.9469 42.5943 10.9684C45.51 8.9792 48.344 7.01703 48.8618 6.58103C50.1425 5.54553 50.197 5.57289 49.9245 7.23514C48.4803 16.0369 47.4993 18.2443 46.5455 20.8331C40.496 23.9123 33.6835 29.035 33.4383 28.8988C33.3293 28.7353 35.7818 18.8436 35.7818 16.5818Z" fill="white"/>
<path d="M32.1857 62.4716C34.2294 62.4716 47.4729 50.6179 48.7264 49.7186C51.3152 47.8656 54.5307 33.2051 52.5414 32.2786C51.7239 31.8971 51.8875 31.8699 49.9255 32.3604C49.0807 32.5784 45.5654 34.1589 42.1047 35.9029C34.2294 39.8541 35.0469 38.5189 34.1204 40.8624C31.6952 46.9664 30.1419 58.9834 29.5152 59.9916C28.8884 60.8909 30.6052 62.4716 32.1857 62.4716ZM34.5292 53.4791C35.5919 50.1274 36.7092 45.4404 37.4994 42.2249C47.4457 37.7286 49.1352 36.4476 49.1352 37.0199C49.1352 37.7011 48.0724 39.1456 46.8189 47.8111C44.4754 49.2554 39.5704 52.1436 36.4912 54.4599C33.2484 56.8851 33.4392 56.9671 34.5292 53.4791Z" fill="white"/>
<path d="M23.8743 44.1865C21.6125 40.3443 17.7158 44.4048 17.1708 44.8135C11.0941 49.3915 8.58705 52.3073 5.37155 55.114C3.7093 56.5855 4.63582 56.1768 2.12882 65.0603C-0.650675 74.9248 0.902576 77.023 8.80508 71.0553C13.71 67.3493 13.9825 67.4035 19.378 63.534C21.6943 61.899 21.449 60.2368 22.7025 55.7678C24.2013 50.454 24.6918 45.549 23.8743 44.1865ZM16.8438 60.0735C16.544 61.9538 13.928 61.7903 8.96855 65.3328C5.37155 67.9215 7.08833 66.9403 7.98758 59.9098L8.31458 57.3485C17.5795 49.9638 19.705 47.3205 19.705 48.3015C19.705 48.3015 17.0618 58.711 16.8438 60.0735Z" fill="white"/>
<path d="M75.4593 12.0027C71.2901 14.5642 60.4718 22.6847 59.4636 23.5567C58.6188 24.2652 57.8013 24.8647 57.6651 24.8647C56.6568 24.8647 57.4198 28.707 56.6568 35.138C55.485 45.1115 56.1118 47.373 66.0581 41.4597C67.8566 40.397 70.5543 39.0892 72.1076 38.517C76.8218 36.773 76.4948 37.1 76.6856 34.4022C76.7673 33.1215 77.2578 30.5055 77.7211 28.5435C78.8383 24.02 79.7103 18.9786 79.9828 15.8448C80.3916 11.4031 78.1571 10.3404 75.4593 12.0027ZM75.0233 20.0142C74.2058 24.2652 72.0803 32.876 71.9713 33.8297C71.8351 34.947 67.8021 35.8735 62.5428 38.871C59.8178 40.4242 60.0358 40.6697 60.608 36.7185C61.1803 32.8762 61.5346 29.0885 61.7798 26.4997C61.7798 26.4997 72.0531 19.2785 73.2521 18.3793C75.8953 16.39 75.7318 16.281 75.0233 20.0142Z" fill="white"/>
<path d="M65.2121 45.6856C59.1081 49.5551 55.2931 52.1166 54.9661 52.1166C53.9851 52.1166 50.8786 66.2321 51.2056 69.1478C51.3146 70.0471 51.5599 72.5541 51.5599 72.7176C51.8596 74.9793 58.0999 71.9818 66.9834 65.2511C69.4631 63.3708 69.7901 63.2073 70.8256 63.2618C72.4879 63.3436 72.9511 62.4443 73.5506 58.1116C75.5399 43.3693 73.5506 40.3991 65.2121 45.6856ZM68.6456 60.7276C68.6184 60.7548 66.9016 61.6541 64.8034 62.7713C57.1734 66.7771 54.9661 68.9026 55.2114 67.8671C55.3476 67.3221 56.4921 59.2561 56.9009 56.0406C57.0099 55.2503 57.2006 54.8416 57.6366 54.6236C57.9636 54.4601 69.6811 47.5931 69.6811 47.5931C69.7084 47.6203 69.1634 60.7276 68.6456 60.7276Z" fill="white"/>
<path d="M44.7744 58.4092C43.6844 59.0905 38.0709 63.1235 34.8282 65.576C30.0322 69.2002 29.3509 70.236 27.7704 76.3673C27.2527 78.3838 26.5169 81.027 26.1354 82.226C22.8654 92.6083 26.4624 93.0712 28.7787 91.518C30.4137 90.4007 40.1419 82.2805 42.2674 80.264C43.8479 78.738 44.3929 78.3838 44.9107 78.4928C46.5729 78.8198 47.1452 77.4025 48.1807 70.263C49.0254 64.4042 49.8157 55.2755 44.7744 58.4092ZM44.8834 63.914C44.6109 65.7398 43.1394 74.487 43.1394 75.3318C43.1394 75.795 29.7052 85.1418 29.9232 84.3243C31.9397 76.3673 31.6127 71.1898 32.5119 71.1898C32.9752 71.1898 34.1197 70.4268 40.7959 65.658C45.5102 62.279 45.1014 62.4425 44.8834 63.914Z" fill="white"/>
<path d="M7.6063 46.0385C8.6418 45.4935 11.4486 42.9045 15.209 39.8797C24.6647 32.2225 25.0735 31.6777 26.4905 24.5927C28.0437 16.7446 28.725 7.26146 22.512 12.3027C20.7135 13.7742 10.4403 21.595 8.94157 22.6305C6.84332 24.102 4.5543 40.6427 3.7368 44.2397C3.43705 45.6295 6.0258 46.8287 7.6063 46.0385ZM11.612 26.0915C21.6127 18.5431 22.9752 17.4531 22.9752 17.9164C22.9752 18.2434 21.1222 26.5547 20.9587 28.1897C20.7952 29.9882 15.1545 33.8847 8.47827 39.5255C7.60627 40.234 8.58727 39.0897 11.612 26.0915Z" fill="white"/>
</svg>
