<svg width="400" height="401" viewBox="0 0 400 401" fill="none" xmlns="http://www.w3.org/2000/svg">
<mask id="mask0_18_38030" style="mask-type:alpha" maskUnits="userSpaceOnUse" x="0" y="0" width="400" height="401">
<g clip-path="url(#clip0_18_38030)">
<path d="M167.616 72.5607C154.724 72.5607 150.856 80.3778 146.401 95.3599C146.123 96.3953 146.057 97.4744 146.207 98.5344C146.357 99.5945 146.72 100.616 147.275 101.539C147.858 102.699 148.887 103.587 150.138 104.012C155.524 105.324 161.048 105.42 166.392 105.515C173.735 105.642 180.687 105.761 187.508 108.696C189.77 109.794 191.951 111.043 194.036 112.433C200.27 116.338 207.327 120.759 213.692 118.692C217.975 117.3 220.342 115.264 220.733 112.64C221.639 106.557 211.301 99.5189 204.464 94.8589C203.248 94.0637 202.195 93.3162 201.379 92.7197C198.696 90.6338 196.148 88.3873 193.75 85.9921C187.9 80.4255 181.258 74.0637 173.45 72.9901C171.518 72.7126 169.568 72.5694 167.616 72.5607ZM150.742 101.698C150.155 101.408 149.684 100.935 149.404 100.354C148.623 99.045 148.395 97.4903 148.768 96.0199C153.729 79.2645 157.123 73.1333 173.148 75.344C180.165 76.3142 186.203 82.0955 192.078 87.6859C194.55 90.1567 197.18 92.4724 199.951 94.6203C200.767 95.2406 201.869 95.9642 203.101 96.8072C208.674 100.6 219.036 107.662 218.351 112.29C218.098 113.952 216.286 115.336 212.957 116.418C207.703 118.127 201.167 114.032 195.398 110.422C193.206 108.957 190.908 107.649 188.52 106.509C181.242 103.328 173.727 103.225 166.49 103.097C161.252 103.042 155.858 102.915 150.742 101.698Z" fill="#074EBA"/>
<path d="M384.573 228.633C381.053 228.653 377.629 229.749 374.782 231.766C364.175 239.058 359.736 256.649 358.879 264.935C357.696 276.49 362.257 285.746 366.663 294.685C369.046 299.519 371.502 304.514 373.077 309.873C374.398 314.374 374.529 320.132 374.708 326.224C375.043 340.299 375.426 356.251 391.239 361.389C394.748 362.534 396.135 361.858 397.514 360.872C397.685 360.752 397.857 360.625 398.044 360.506C398.126 360.457 398.202 360.401 398.273 360.339L399.807 358.812C399.862 358.762 399.911 358.706 399.954 358.645C401.969 355.727 401.104 349.945 400.092 346.979C395.833 334.534 391.484 319.663 391.484 303.758C391.484 296.187 395.017 290.327 398.762 284.116C404.792 274.104 411.63 262.756 403.266 242.366C400.361 235.289 395.49 230.732 389.191 229.197C387.682 228.825 386.131 228.635 384.573 228.633ZM394.258 359.607C393.468 359.562 392.69 359.401 391.949 359.13C377.768 354.518 377.425 340.108 377.091 326.168C376.944 319.917 376.805 314.016 375.394 309.213C373.762 303.647 371.257 298.573 368.866 293.659C364.411 284.609 360.201 276.068 361.319 265.174C362.265 255.981 367.03 240.021 376.185 233.722C377.946 232.474 379.974 231.626 382.115 231.244C384.258 230.861 386.462 230.953 388.563 231.512C395.523 233.205 399.17 238.836 400.957 243.257C408.88 262.557 402.646 272.903 396.616 282.907C392.871 289.118 389.004 295.535 389.004 303.758C389.004 320.005 393.418 335.106 397.734 347.734C398.664 350.446 399.235 355.202 397.946 357.222L396.592 358.565C396.404 358.685 396.225 358.812 396.045 358.939C395.553 359.367 394.918 359.605 394.258 359.607Z" fill="#074EBA"/>
<path d="M163.894 178.866C163.383 178.865 162.873 178.9 162.368 178.97C158.55 179.503 155.841 182.008 154.339 186.421C152.838 190.835 155.498 195.065 158.076 199.145C159.708 201.705 161.218 204.131 161.601 206.389C164.995 226.27 153.148 239.232 126.377 245.029L125.267 245.268C121.302 246.119 117.206 246.994 113.673 248.982C113.419 249.126 113.186 249.303 112.979 249.506C112.513 249.945 112.19 250.51 112.053 251.129C111.917 251.747 111.973 252.391 112.214 252.978C112.455 253.565 112.869 254.069 113.405 254.425C113.941 254.781 114.575 254.974 115.223 254.978C121.229 255.129 126.393 255.558 130.955 255.932C146.041 257.165 156.934 258.055 179.976 248.075C195.234 241.467 200.374 229.713 196.115 211.081C194.807 205.277 192.4 199.762 189.017 194.819C185.712 190.182 173.416 178.866 163.894 178.866ZM144.466 254.31C140.183 254.31 135.924 253.96 131.167 253.57C126.573 253.188 121.375 252.775 115.289 252.608C115.117 252.618 114.947 252.576 114.802 252.487C114.658 252.398 114.545 252.267 114.481 252.112C114.417 251.957 114.405 251.786 114.446 251.624C114.486 251.462 114.579 251.316 114.709 251.208C114.766 251.154 114.829 251.106 114.897 251.065C118.104 249.26 122.012 248.425 125.79 247.614L126.907 247.375C155.18 241.252 167.704 227.336 164.016 206.023C163.551 203.304 161.83 200.576 160.165 197.928C157.766 194.135 155.506 190.548 156.657 187.192C157.864 183.662 159.847 181.753 162.719 181.347C170.829 180.21 183.582 191.391 187.001 196.202C190.191 200.902 192.469 206.131 193.725 211.63C197.731 229.196 193.186 239.781 178.981 245.928C163.527 252.608 153.923 254.31 144.466 254.31Z" fill="#074EBA"/>
<path d="M127.895 390.437C126.149 387.567 124.338 384.592 124.338 380.895C124.338 377.992 125.586 375.392 126.786 372.871C127.789 371.022 128.528 369.047 128.98 367.002C129.919 361.435 126.533 356.664 123.579 353.586C114.555 344.322 95.9105 337.372 83.6796 338.708C77.5192 339.384 73.464 341.396 71.2855 344.847C67.0263 351.583 70.7143 362.779 74.5003 372.744C75.0714 374.239 75.6263 375.877 76.2137 377.61C78.2617 383.63 80.579 390.461 84.3731 394.246C84.7811 394.644 85.2706 395.105 85.8255 395.622C86.9923 396.728 88.4038 398.056 89.7991 399.535H86.4619C85.646 398.74 84.83 397.992 84.1691 397.34C83.6061 396.807 83.1002 396.33 82.6841 395.924C78.4412 391.742 76.0261 384.632 73.8965 378.358C73.3172 376.64 72.7705 375.026 72.2156 373.586C68.2257 363.081 64.35 351.249 69.2456 343.598C71.8158 339.535 76.5891 337.093 83.4593 336.338C84.573 336.218 85.6925 336.16 86.8128 336.163C99.5251 336.163 116.717 343.034 125.407 351.948C130.229 356.895 132.318 362.231 131.445 367.384C130.957 369.646 130.153 371.832 129.054 373.881C127.912 376.266 126.826 378.517 126.826 380.895C126.826 383.94 128.385 386.461 130.041 389.221C131.828 392.163 133.803 395.431 133.656 399.559H131.208C131.33 396.107 129.625 393.34 127.895 390.437Z" fill="#074EBA"/>
<path d="M39.1538 390.303C42.0585 388.235 45.8771 387.766 50.4953 388.903C54.3955 389.865 58.7526 394.199 63.6971 399.535H60.3763C56.419 395.344 52.7636 391.925 49.8996 391.217C45.9587 390.247 42.9234 390.581 40.598 392.227C38.4439 393.77 37.0405 396.354 36.0858 399.535H33.5156C34.5927 395.639 36.3061 392.33 39.1538 390.303Z" fill="#074EBA"/>
<path d="M152.471 381.984C151.721 377.134 150.546 370.851 148.082 365.285C143.812 355.859 138.266 347.033 131.592 339.042C128.328 335.138 123.816 331.726 119.426 328.418C118.227 327.519 117.052 326.637 115.934 325.754C111.968 322.621 107.415 320.271 102.528 318.835C75.7733 310.954 63.4771 332.052 51.5889 352.458C42.4912 368.06 33.8994 382.835 19.3268 384.577C11.9833 385.468 4.69705 384.633 -2.55664 383.066V380.617C4.64809 382.207 11.8854 383.082 19.0249 382.207C32.3818 380.617 40.6798 366.35 49.4593 351.281C59.5362 333.985 70.7635 314.7 91.7004 314.7C95.6202 314.738 99.5122 315.336 103.254 316.473C108.443 317.992 113.278 320.485 117.484 323.814C118.594 324.68 119.76 325.555 120.944 326.454C125.448 329.841 130.098 333.34 133.517 337.46C140.334 345.636 145.999 354.665 150.358 364.307C152.936 370.159 154.144 376.641 154.911 381.635C155.946 387.554 156.013 393.596 155.107 399.535H152.659C153.524 394.66 153.557 388.911 152.471 381.984Z" fill="#074EBA"/>
<path d="M405.413 148.243C402.367 148.47 399.309 148.507 396.258 148.355C379.809 147.408 365.04 139.607 350.753 132.1C340.44 126.669 329.767 121.047 318.679 118.168C291.353 111.058 269.453 119.4 255.362 142.295C250.883 149.563 247.774 155.297 248.5 163.043C249.536 174.176 253.689 183.718 258.087 193.778C260.274 198.788 262.534 203.973 264.378 209.373C266.916 216.8 267.299 223.917 267.707 231.456C267.838 233.842 267.968 236.386 268.189 238.883C268.564 243.345 270.016 247.862 271.452 252.227C272.615 255.6 273.563 259.039 274.292 262.526C276.536 274.534 270.367 295.846 261.833 305.539C251.062 317.794 235.461 323.082 215.471 321.261C195.154 319.408 176.698 310.788 167.502 305.81C153.835 298.406 129.643 287.52 121.247 297.746C120.733 298.356 120.36 299.065 120.148 299.825C119.937 300.586 119.895 301.382 120.023 302.16C120.733 307.647 127.766 314.088 131.805 317.062C134.954 319.361 138.332 321.651 141.596 323.862C157.556 334.661 174.054 345.834 177.277 366.255C179.292 379.043 177.889 389.174 173.817 399.504H171.174C175.368 389.222 176.885 379.242 174.854 366.621C171.761 347.242 155.736 336.371 140.168 325.85C136.904 323.631 133.486 321.325 130.303 319.003C129.104 318.12 118.57 310.255 117.559 302.494C117.39 301.399 117.459 300.281 117.759 299.213C118.06 298.145 118.587 297.15 119.305 296.291C123.792 290.82 132.205 289.81 144.321 293.293C151.428 295.337 159.612 298.86 168.661 303.758C177.709 308.657 195.791 317.11 215.667 318.915C234.817 320.665 249.716 315.647 259.948 304.021C267.944 294.931 273.949 274.215 271.852 262.987C271.139 259.598 270.215 256.255 269.086 252.975C267.642 248.482 266.149 243.838 265.749 239.114C265.529 236.577 265.39 234.048 265.259 231.607C264.868 224.235 264.492 217.293 262.053 210.136C260.241 204.832 257.973 199.695 255.835 194.732C251.56 184.919 247.129 174.772 246.044 163.273C245.228 154.828 248.68 148.49 253.241 141.086C264.558 122.709 280.664 113.309 300.459 113.309C306.824 113.361 313.156 114.224 319.291 115.878C330.665 118.828 341.46 124.522 351.928 130.017C365.979 137.42 380.486 145.078 396.413 145.985C399.404 146.135 402.402 146.099 405.389 145.874L405.413 148.243Z" fill="#074EBA"/>
<path d="M405.412 187.75C392.564 183.56 380.114 178.286 368.206 171.988C363.98 169.672 359.918 167.082 356.048 164.235C351.862 161.3 347.538 158.263 342.92 156.012C328.282 148.855 301.731 148.855 289.443 159.495C272.733 173.976 277.604 191.782 282.312 209.006C284.107 215.559 287.118 223.71 290.316 232.346C301.299 262.056 314.974 299.034 299.961 320.983C283.242 345.42 246.386 344.092 217.469 334.7C215.168 333.953 212.313 332.696 209.31 331.36C199.968 327.249 187.198 321.603 180.148 326.756C178.035 328.299 176.885 329.937 176.624 331.702C176.118 335.217 179.128 339.098 182.033 342.835C183.176 344.299 184.253 345.69 185.142 347.082C186.333 348.935 187.59 350.804 188.895 352.784C197.259 365.372 206.748 379.631 205.01 394.931C204.827 396.486 204.525 398.025 204.104 399.535H201.567C202.042 397.938 202.381 396.305 202.579 394.652C204.21 380.227 194.982 366.35 186.839 354.096C185.517 352.108 184.269 350.231 183.069 348.362C182.254 347.058 181.185 345.714 180.083 344.283C176.868 340.148 173.556 335.869 174.2 331.368C174.551 328.983 176.061 326.764 178.68 324.847C186.839 318.851 199.894 324.585 210.305 329.189C213.267 330.493 216.058 331.726 218.236 332.434C246.296 341.547 281.969 342.979 297.921 319.654C312.249 298.708 298.81 262.358 288.007 233.157C284.801 224.473 281.765 216.267 279.946 209.618C275.05 191.702 269.975 173.165 287.819 157.714C294.021 152.338 303.828 149.133 315.414 148.688C316.312 148.688 317.21 148.632 318.107 148.632C327.654 148.632 337.167 150.549 344.013 153.881C348.811 156.219 353.217 159.312 357.476 162.302C361.26 165.083 365.229 167.618 369.356 169.889C380.909 175.988 392.97 181.123 405.412 185.237V187.75Z" fill="#074EBA"/>
<path d="M405.413 399.535H405.217C405.217 396.354 403.373 393.253 399.791 390.199C383.382 376.235 361.197 378.589 339.721 380.871C329.237 381.984 318.401 383.138 308.618 382.271C300.026 381.476 292.674 377.627 285.56 373.881C278.445 370.136 271.893 366.668 264.068 365.825C253.844 364.712 242.853 365.563 234.694 368.084C223.556 371.527 217.331 377.794 216.189 386.716C215.634 391.018 216.482 395.193 217.543 399.535H215.03C214.01 395.281 213.178 390.915 213.757 386.414C216.115 367.877 237.77 362.955 254.978 362.955C258.105 362.955 261.229 363.119 264.337 363.448C272.635 364.346 279.799 368.124 286.726 371.782C293.939 375.583 300.752 379.177 308.838 379.893C318.376 380.736 328.617 379.654 339.452 378.501C361.482 376.163 384.214 373.73 401.406 388.41C402.939 389.682 404.286 391.151 405.413 392.776V399.535Z" fill="#074EBA"/>
<path d="M300.858 399.535C299.422 399.074 297.945 398.597 296.428 398.088C283.773 393.921 269.428 389.189 258.079 395.813C256.391 396.747 254.924 398.015 253.771 399.535H250.85C252.252 397.1 254.331 395.099 256.847 393.762C261.213 391.274 266.2 390.01 271.256 390.112C279.872 390.112 288.889 393.086 297.211 395.829C299.83 396.696 302.311 397.515 304.693 398.215C306.727 398.791 308.799 399.232 310.894 399.535H300.858Z" fill="#074EBA"/>
<path d="M405.411 198.978L404.155 198.652C398.443 197.125 393.303 194.206 388.367 191.391C385.919 190.015 383.471 188.584 380.925 187.359C366.336 180.25 332.222 171.701 319.452 184.178C290.283 212.576 308.413 256.735 321.647 288.997C322.602 291.383 323.818 293.665 325.099 296.155C327.628 301.013 330.239 306.039 330.925 311.367C332.165 321.038 324.063 326.477 316.915 331.32C308.649 336.886 301.51 341.658 306.65 351.717C308.013 354.381 310.167 356.886 312.256 359.32C312.909 360.115 313.561 360.839 314.182 361.594C317.233 365.316 322.863 364.481 327.824 363.749C328.689 363.622 329.521 363.495 330.321 363.399C341.181 362.071 366.622 357.348 368.368 342.032C369.657 330.763 364.223 322.501 358.479 313.761C356.13 310.313 353.968 306.749 352 303.081C350.173 299.479 348.386 296.155 346.664 292.974C335.184 271.813 327.604 257.833 343.612 230.532C347.423 224.027 355.623 212.592 367.707 209.061C377.661 206.151 391.638 207.852 405.42 213.037V215.662C391.851 210.405 377.931 208.552 368.409 211.336C357.141 214.628 349.365 225.514 345.734 231.709C330.394 257.872 337.33 270.675 348.826 291.852C350.564 295.033 352.359 298.373 354.203 301.96C356.122 305.557 358.236 309.054 360.535 312.433C366.246 321.181 372.17 330.151 370.791 342.254C368.857 359.256 342.054 364.33 330.623 365.721C329.807 365.817 328.991 365.944 328.175 366.063C322.839 366.859 316.189 367.845 312.248 363.042C311.644 362.302 311.008 361.562 310.363 360.807C308.078 358.351 306.093 355.645 304.447 352.743C298.352 340.871 307.075 334.994 315.503 329.316C322.716 324.449 329.537 319.86 328.477 311.622C327.848 306.707 325.335 301.872 322.896 297.196C321.647 294.811 320.358 292.306 319.355 289.872C305.867 257.005 287.394 212.004 317.723 182.461C322.977 177.332 331.284 175.407 340.422 175.407C355.288 175.407 372.35 180.512 382.035 185.22C384.63 186.485 387.167 187.932 389.615 189.332C394.413 192.075 399.406 194.898 404.816 196.345L405.428 196.512L405.411 198.978Z" fill="#074EBA"/>
<path d="M405.411 28.0762C402.262 27.4002 399.12 26.7481 396.028 26.112C381.3 23.0662 367.397 20.1875 358.087 15.6468C351.103 12.2487 344.843 7.59191 339.639 1.92113H343.017C347.687 6.65592 353.154 10.5772 359.18 13.5155C368.213 17.9132 381.969 20.7601 396.534 23.774C399.463 24.3784 402.433 24.9986 405.411 25.6348V28.0762Z" fill="#074EBA"/>
<path d="M248.89 10.4291C246.075 24.1388 231.984 28.0752 219.516 31.5424C210.182 34.1507 201.362 36.608 199.061 42.7233C197.151 47.773 199.648 55.2402 206.698 65.5463C209.922 70.3901 214.434 74.2899 219.753 76.8306C226.737 80.2342 232.922 85.276 238.65 92.2501C240.445 94.429 241.71 97.1964 242.934 99.8684C245.847 106.23 248.645 112.306 258.265 112.306C259.711 112.298 261.154 112.18 262.581 111.956C269.925 110.858 273.743 107.455 277.799 103.852C283.959 98.3734 290.331 92.7193 308.861 95.7173C327.758 98.7869 348.026 107.598 365.977 115.367L369.143 116.743C372.916 118.468 376.584 120.407 380.125 122.548C385.992 125.944 392.062 129.467 398.892 130.787C401.087 131.216 403.282 131.534 405.419 131.749V134.135C403.086 133.904 400.736 133.57 398.378 133.109C391.165 131.709 384.915 128.083 378.869 124.584C375.409 122.489 371.826 120.593 368.139 118.906L364.965 117.53C347.202 109.817 327.057 101.069 308.462 98.0553C291.123 95.2322 285.452 100.266 279.455 105.602C275.31 109.284 271.026 113.085 262.965 114.302C247.903 116.568 244.076 108.202 240.706 100.823C239.691 98.3066 238.362 95.9217 236.749 93.7213C231.241 87.0255 225.326 82.1905 218.668 78.9459C212.985 76.2095 208.158 72.0386 204.691 66.8664C197.07 55.7332 194.557 47.7809 196.784 41.8962C199.518 34.6517 208.917 32.0275 218.863 29.2521C231.2 25.8088 243.962 22.2462 246.483 9.95988C247.025 7.30621 247.388 4.62073 247.568 1.92014H250.016C249.832 4.77739 249.456 7.62032 248.89 10.4291Z" fill="#074EBA"/>
<path d="M405.412 49.4843C402.858 48.4267 400.337 47.3611 397.856 46.3034C382.011 39.5997 367.046 33.2696 349.414 29.8263C339.99 27.9893 329.016 26.1683 327.188 26.3432C320.987 30.5182 312.501 44.9038 310.869 51.3531C307.352 65.0549 320.872 74.6772 331.741 82.4068C333.577 83.7189 335.315 84.9515 336.914 86.1682C342.944 90.7328 349.3 91.5121 356.031 92.3392C360.272 92.7257 364.462 93.5249 368.54 94.7249C373.62 96.5237 378.573 98.6485 383.365 101.087C389.281 103.934 395.392 106.876 401.43 108.347C402.727 108.665 404.065 108.904 405.42 109.103V111.488C403.877 111.28 402.346 110.993 400.834 110.629C394.543 109.095 388.31 106.097 382.28 103.194C377.588 100.808 372.739 98.7272 367.764 96.9674C363.838 95.8127 359.804 95.0429 355.721 94.6692C348.957 93.8342 341.973 92.9754 335.412 88.0052C333.846 86.8203 332.149 85.6195 330.297 84.2915C318.873 76.1404 304.578 66.0012 308.495 50.7328C310.29 43.7189 319.028 28.7448 325.988 24.2199C326.135 24.1245 326.372 23.9734 327.473 23.9734C329.636 23.9734 335.16 24.5778 349.895 27.4486C367.789 30.9396 382.867 37.3173 398.852 44.0768L405.436 46.8442L405.412 49.4843Z" fill="#074EBA"/>
<path d="M405.411 66.5015C402.449 65.3961 399.52 64.251 396.616 63.1217C384.483 58.3504 371.925 53.4597 358.609 52.2828C349.511 51.4875 344.037 52.5214 343.58 55.1456C342.609 60.7122 359.841 73.2689 370.008 75.75C379.734 78.1357 390.055 80.8235 399.651 84.5611C401.095 85.1257 403.078 85.8255 405.411 86.5969V89.0859C402.392 88.1078 400.026 87.2808 398.745 86.7798C389.28 83.0899 379.057 80.418 369.412 78.0323C359.768 75.6466 339.802 62.5651 341.173 54.7162C341.915 50.4299 347.904 49.5631 352.963 49.5631C355.345 49.5631 357.516 49.754 358.829 49.8732C372.505 51.082 385.225 56.0601 397.529 60.8712C400.132 61.8891 402.76 62.915 405.411 63.917V66.5015Z" fill="#074EBA"/>
<path d="M377.809 1.92073H377.671C376.378 2.21894 375.031 2.2054 373.746 1.88095L377.809 1.92073Z" fill="#074EBA"/>
<path d="M405.411 8.80664C402.716 7.25436 400.601 4.90286 399.374 2.09491C399.351 2.03845 399.332 1.9796 399.316 1.91996H401.976C402.799 3.48179 403.973 4.84084 405.411 5.8961V8.80664Z" fill="#074EBA"/>
<path d="M303.584 33.0378C297.211 37.6899 293.262 42.2227 289.949 48.688C287.061 54.3182 285.527 60.3221 284.042 66.1273C282.149 73.5547 280.182 81.2366 275.377 88.2665C273.369 91.2008 270.22 92.8947 266.01 93.3082C258.381 94.0398 249.919 90.3102 248.508 88.9344C245.88 86.3738 243.433 84.2824 241.27 82.4374C234.873 76.9663 230.255 73.014 227.701 63.0577C225.694 55.2486 235.469 49.6581 245.815 43.7416C254.676 38.6681 263.839 33.4037 265.161 26.9782C265.887 23.6701 265.071 16.2347 264.255 7.66213C264.068 5.80925 263.872 3.8848 263.684 1.92059H266.132C266.312 3.80527 266.499 5.6502 266.679 7.43151C267.601 16.5687 268.311 23.7893 267.584 27.4474C266.042 34.9464 256.398 40.4573 247.072 45.8013C237.533 51.2486 228.534 56.4017 230.092 62.5011C232.458 71.7337 236.62 75.2883 242.902 80.6641C245.089 82.5329 247.569 84.6402 250.246 87.2724C251.16 88.1631 257.793 91.0339 264.019 91.0339C264.614 91.0339 265.202 91.0339 265.781 90.9543C269.216 90.6203 271.77 89.2764 273.353 86.9782C277.922 80.2983 279.742 73.1571 281.676 65.5945C283.193 59.6621 284.752 53.5309 287.763 47.6621C291.263 40.839 295.424 36.0597 302.115 31.1691C309.173 26.016 307.924 12.9265 305.982 1.96033H308.43C310.462 13.4196 311.62 27.1611 303.584 33.0378Z" fill="#074EBA"/>
<path d="M237.501 137.253C226.951 144.107 210.861 134.867 195.301 125.992C186.538 120.974 178.256 116.243 172.063 115.145C155.646 112.235 140.739 113.046 123.425 115.145C119.835 115.583 115.739 117.109 111.414 118.724C103.785 121.571 95.9116 124.505 88.9843 122.255C81.2166 119.734 79.087 104.76 77.3817 92.7357C76.5658 87.2646 75.8641 82.0877 74.7789 79.9167C74.3219 79.4077 71.7028 78.0558 69.1815 76.7358C57.2444 70.5409 32.4073 57.6503 23.6849 34.7557C20.723 26.9863 18.0794 17.3322 23.9705 11.5986C31.3139 4.44157 46.4169 11.4396 55.4412 15.6145C56.9098 16.2984 58.1827 16.8869 59.2189 17.3163C78.4424 25.3481 105.213 33.0459 123.539 24.1155C132.727 19.6384 141.996 10.8034 148.899 1.9048H151.991C144.786 11.5907 134.783 21.3004 124.633 26.2467C118.448 29.2607 111.398 30.4853 104.022 30.4853C88.5192 30.4853 71.5967 25.0857 58.2561 19.5112C57.1791 19.0658 55.8899 18.4615 54.3886 17.7696C45.9436 13.865 31.8116 7.32825 25.7003 13.2845C20.8046 18.0559 23.2524 26.8034 25.9777 33.9207C34.3818 55.9962 58.6396 68.5847 70.332 74.6443C74.9665 77.03 76.4597 77.8252 76.9493 78.8113C78.2221 81.3004 78.9565 86.4534 79.805 92.4177C81.339 103.193 83.436 117.952 89.7595 120.004C95.8464 121.984 103.312 119.209 110.533 116.505C115.013 114.835 119.231 113.261 123.115 112.783C140.666 110.652 155.752 109.833 172.504 112.783C179.121 113.952 187.582 118.795 196.541 123.917C210.755 132.052 226.87 141.276 236.139 135.257C243.784 130.286 238.113 119.622 234.36 112.569C233.968 111.837 233.601 111.145 233.275 110.509C228.428 101.062 214.141 83.7576 203.648 79.2169L202.187 78.5887C192.086 74.2467 175.188 66.9783 173.524 55.6066C171.304 40.4972 185.404 29.7219 200.327 18.3422C207.23 13.0857 214.198 7.74973 219.551 1.9048H222.814C217.16 8.54495 209.4 14.4614 201.845 20.195C187.492 31.1294 173.94 41.4594 175.955 55.2328C177.432 65.3004 194.183 72.5052 203.183 76.37L204.652 77.0061C215.789 81.8332 230.345 99.4236 235.47 109.412L236.538 111.44C240.439 118.819 246.966 131.098 237.501 137.253Z" fill="#074EBA"/>
<path d="M183.305 9.57909C179.886 14.2471 176.851 19.4161 173.914 24.418C172.086 27.5274 170.193 30.7799 168.202 33.8018C164.694 39.2729 163.127 45.5711 161.617 51.6705C159.937 58.3982 158.207 65.3564 153.866 71.2809C147.853 79.4956 139.848 83.2093 132.113 86.8673C127.422 89.0701 122.559 91.3524 118.071 94.6287C116.619 95.6943 115.019 97.7619 113.33 99.9488C109.087 105.452 103.8 112.299 96.367 108.696C92.5157 106.82 90.174 104.513 89.2112 101.643C87.5793 96.8713 90.3454 91.6864 92.7524 87.1297C94.629 83.591 96.3996 80.2351 95.4123 78.3027C93.6744 74.915 88.4442 73.3166 83.826 71.9409C81.6874 71.3564 79.5978 70.6121 77.576 69.7143C73.4474 67.7023 37.3258 49.6029 41.0139 34.1039C41.1326 33.428 41.4308 32.7942 41.8789 32.2654C42.327 31.7373 42.9092 31.3318 43.5678 31.09C48.5613 29.2928 58.9645 36.3147 70.0939 44.2988C72.0586 45.7962 74.1041 47.1894 76.2216 48.4737C91.4469 55.8852 113.673 60.3146 126.491 52.5055C150.406 37.9369 156.077 27.6149 164.661 11.9966C166.374 8.8793 168.202 5.55525 170.299 1.96877H173.122C170.74 5.99263 168.708 9.68249 166.815 13.102C158.362 28.4896 152.259 39.6069 127.789 54.5174C122.395 57.7938 115.925 59.0582 109.251 59.0582C96.5465 59.0582 83.1406 54.4856 75.1282 50.589C72.8644 49.257 70.6846 47.7938 68.6007 46.2073C61.5918 41.1735 48.545 31.8137 44.3755 33.3167C44.0989 33.424 43.8577 33.6029 43.6778 33.8343C43.4981 34.0658 43.3866 34.3401 43.3556 34.6288C40.7038 45.762 65.2717 61.0542 78.6286 67.5671C80.5378 68.4005 82.5066 69.0971 84.5196 69.6506C89.5947 71.2013 95.3552 72.9588 97.5745 77.253C99.1248 80.2669 97.0768 84.1397 94.9064 88.2431C92.736 92.3464 90.2311 97.0701 91.5203 100.919C92.2628 103.146 94.2047 104.999 97.4358 106.573C102.642 109.118 106.485 104.847 111.356 98.5492C113.151 96.2192 114.848 94.0164 116.578 92.752C121.253 89.3325 126.222 87.0025 131.028 84.752C138.828 81.094 146.196 77.6427 151.851 69.929C155.93 64.3624 157.513 57.9449 159.194 51.1377C160.753 44.8554 162.368 38.3663 166.089 32.5691C168.023 29.5552 169.899 26.3584 171.711 23.265C174.681 18.2153 177.749 12.9906 181.241 8.22722C182.953 6.0133 184.837 3.93138 186.879 2.00056L186.928 1.95285H190.338C189.775 2.53337 189.196 3.10593 188.633 3.67055C186.708 5.50832 184.927 7.48286 183.305 9.57909Z" fill="#074EBA"/>
<path d="M63.7132 4.48015C60.3203 4.11037 57.0035 3.24755 53.873 1.91952H62.3751C62.8892 1.99904 63.4032 2.07059 63.9091 2.1024C68.676 2.44515 73.4645 2.38393 78.2206 1.91952H92.6789C83.223 4.25749 73.4466 5.1219 63.7132 4.48015Z" fill="#074EBA"/>
<path d="M55.2851 129.793C52.7068 131.145 50.2753 132.425 48.1049 133.698C43.5435 136.471 39.1817 139.546 35.0499 142.898C24.9486 150.731 15.3939 158.135 -2.55664 156.99V154.604C14.578 155.733 23.3575 148.918 33.5159 141.03C37.7359 137.613 42.1875 134.478 46.8402 131.646C49.0677 130.35 51.5236 129.061 54.1265 127.67C60.2134 124.489 66.5124 121.165 70.2984 117.475C71.0246 116.767 70.8777 113.896 70.8042 112.513C70.8042 111.996 70.7553 111.527 70.7553 111.153C70.7553 101.22 68.0545 92.5047 54.8771 82.2225C52.4293 80.3139 49.4512 79.2165 46.3017 78.0634C42.8829 76.799 39.3417 75.4948 36.4533 73.0376C14.8228 54.6121 -8.17844 27.5267 2.79591 1.92033H5.47215C-5.91014 26.4929 16.7892 53.1171 38.1096 71.2642C40.6554 73.4431 43.8212 74.6121 47.2073 75.8527C50.3977 77.0296 53.7348 78.2384 56.4438 80.3855C66.5287 88.2503 73.2439 96.4888 73.2439 111.177C73.2439 111.519 73.2439 111.972 73.2929 112.417C73.4152 114.803 73.5621 117.729 72.069 119.185C67.9893 123.121 61.5352 126.509 55.2851 129.793Z" fill="#074EBA"/>
<path d="M-2.55664 65.9922V63.3123C-2.01248 62.995 -1.50858 62.6157 -1.05531 62.1831C-0.451518 61.5866 -0.239374 60.2427 -0.582068 58.4057C-0.994524 56.2944 -1.65716 54.2371 -2.55664 52.2745V46.7954C-0.451518 50.6204 1.29459 54.7874 1.83311 58.024C2.28187 60.7198 1.89022 62.6841 0.674475 63.8689C-0.262857 64.7604 -1.3574 65.4801 -2.55664 65.9922Z" fill="#074EBA"/>
<path d="M24.4587 119.551C22.8268 122.239 21.146 125.022 17.8496 126.947C13.0192 129.77 5.84713 131.368 -2.54883 131.543V129.157C4.84357 128.982 11.8769 127.67 16.6012 124.911C19.359 123.32 20.8114 120.935 22.3535 118.342C23.212 116.845 24.18 115.41 25.2501 114.048C31.386 106.573 33.5727 100.529 31.7776 96.0758C28.3344 87.7259 11.575 85.2766 -2.49171 83.4555V81.0698C12.3012 82.9863 30.0805 85.5311 34.0704 95.209C36.2897 100.593 34.0704 107.249 27.2247 115.567C26.2061 116.829 25.2818 118.16 24.4587 119.551Z" fill="#074EBA"/>
<path d="M208.771 285.387C207.074 286 205.507 286.691 203.973 287.359C200.269 288.99 196.769 290.54 192.044 290.938C179.928 292.012 165.118 289.769 149.477 287.399C122.323 283.28 94.238 279.033 73.9538 290.326C59.12 298.588 51.8419 313.093 44.8003 327.113C37.9465 340.751 31.4842 353.634 18.6903 361.125C12.7422 364.608 5.26004 365.896 -2.524 365.69V363.304C4.20748 363.471 11.5264 362.509 17.4746 359.073C29.6647 351.916 35.98 339.368 42.6626 326.056C49.8673 311.741 57.3494 296.878 72.8033 288.25C93.8381 276.536 123.628 281.093 149.918 285.069C165.42 287.455 180.107 289.642 191.889 288.592C196.206 288.21 199.526 286.755 203.035 285.22C204.593 284.536 206.209 283.829 207.971 283.184C224.894 276.998 234.334 271.041 239.548 263.256C245.325 254.628 246.337 243.161 242.812 226.063C240.968 217.101 237.329 210.031 233.478 202.548C230.836 197.65 228.491 192.605 226.452 187.439C225.185 183.82 224.115 180.139 223.246 176.409C221.304 168.727 219.297 160.791 214.026 154.938C198.662 137.817 175.742 128.067 147.747 126.731C123.905 125.602 97.159 130.827 74.378 141.045C65.982 144.783 57.9859 149.833 50.2753 154.747C39.8721 161.348 29.1751 168.171 17.0258 172.099C11.3143 173.96 4.68889 174.548 -2.55664 173.88V171.495C4.46042 172.163 10.8165 171.614 16.2752 169.841C28.0981 166 38.6971 159.264 48.9126 152.751C56.7212 147.805 64.7581 142.676 73.3255 138.827C94.6459 129.322 117.783 124.309 141.228 124.115C143.458 124.115 145.664 124.168 147.845 124.274C176.517 125.634 200.065 135.67 215.845 153.292C221.508 159.59 223.588 167.821 225.596 175.773C226.443 179.419 227.489 183.019 228.729 186.556C230.734 191.646 233.041 196.617 235.64 201.443C239.393 208.743 243.285 216.282 245.186 225.562C248.834 243.32 247.708 255.336 241.555 264.528C236.04 272.775 226.248 279.01 208.771 285.387Z" fill="#074EBA"/>
<path d="M171.817 269.118C161.267 271.686 150.684 270.056 140.444 268.482C137.385 268.012 134.227 267.527 131.143 267.162C128.556 266.859 125.953 266.541 123.342 266.223C102.332 263.655 80.6118 260.999 60.0257 265.555C43.4459 269.205 23.7491 282.923 19.4736 299.519C18.3476 303.909 18.4945 309.062 18.6577 314.629C18.9922 326.335 19.3757 339.607 5.309 344.752C2.78357 345.625 0.122991 346.069 -2.55664 346.064V343.679C-0.164921 343.682 2.20928 343.281 4.46042 342.494C16.8871 337.945 16.5607 326.645 16.218 314.661C16.063 309.245 15.908 303.655 17.1156 298.939C19.7919 288.513 27.5351 280.649 33.5649 275.877C41.2428 269.786 50.6996 265.181 59.4872 263.233C80.4894 258.581 102.43 261.261 123.644 263.853C126.255 264.179 128.858 264.49 131.428 264.792C134.562 265.158 137.744 265.651 140.828 266.128C150.823 267.663 161.161 269.253 171.222 266.804C181.609 264.275 192.33 257.69 199.902 249.189C208.216 239.869 211.994 229.309 210.509 219.408C208.233 203.846 199.225 190.239 183.73 178.979C155.988 158.836 115.191 152.1 89.1628 155.853C77.4052 157.531 66.4308 162.939 55.8073 168.124C51.8174 170.088 47.6479 172.1 43.5683 173.921C37.1632 176.728 31.4516 181.873 25.3973 187.297C17.0258 194.907 8.34425 202.669 -2.55664 204.068V201.635C7.512 200.172 15.7448 192.776 23.7655 185.619C29.6892 180.291 35.825 174.78 42.5891 171.814C46.6688 170.04 50.7485 168.02 54.7058 166.064C65.5006 160.752 76.6545 155.257 88.8365 153.5C115.363 149.675 156.984 156.537 185.231 177.07C201.036 188.561 210.623 203.09 212.973 219.082C214.515 229.659 210.525 240.911 201.754 250.764C193.864 259.575 182.661 266.446 171.817 269.118Z" fill="#074EBA"/>
<path d="M111.846 241.714C106.665 243.734 101.239 245.69 96.0085 247.575C85.5646 251.352 74.7126 255.257 65.1661 259.893C62.1308 261.372 58.1491 261.221 54.2978 261.07C52.1231 260.907 49.9373 260.947 47.7703 261.189C42.1567 262.104 35.2783 265.825 29.9095 268.958C20.4446 274.525 8.9562 287.869 6.91636 299.821C6.4676 302.422 6.23097 305.197 5.96987 308.131C5.2274 316.831 4.37883 326.557 -2.55664 332.084V328.76C2.16764 323.678 2.86935 315.702 3.54657 307.917C3.80767 304.935 4.06061 302.119 4.51754 299.424C6.67974 286.795 18.7311 272.712 28.6692 266.907C34.2176 263.662 41.3571 259.805 47.3868 258.827C49.7235 258.555 52.0818 258.505 54.4284 258.676C57.9696 258.811 61.6331 258.954 64.1054 257.754C73.7335 253.062 84.6262 249.133 95.16 245.332C100.382 243.448 105.767 241.499 110.94 239.487C120.993 235.567 138.258 221.698 135.418 209.165C133.46 200.561 125.904 194.573 119.916 191.074C112.592 186.905 104.543 184.088 96.1717 182.764C74.2312 179.471 39.6273 197.499 14.3659 210.652C9.19283 213.348 4.31356 215.885 0.176753 217.905C-0.745256 218.358 -1.65911 218.795 -2.55664 219.225V216.561L-0.924762 215.766C3.15492 213.762 8.05052 211.225 13.1991 208.545C36.6491 196.33 68.0382 179.98 90.6315 179.98C92.6061 179.973 94.5782 180.114 96.5307 180.402C111.022 182.573 133.958 191.885 137.776 208.648C140.983 222.684 122.886 237.412 111.846 241.714Z" fill="#074EBA"/>
<path d="M57.8716 248.441L56.2398 248.862L51.1646 250.182C36.7225 253.92 16.9442 259.033 7.10403 267.232C3.4813 270.318 0.00540614 275.638 -2.55664 281.141V275.805C-0.214897 271.677 2.58377 267.932 5.6027 265.467C15.8427 256.918 35.9311 251.717 50.6016 247.924C52.3885 247.463 54.0857 247.025 55.6604 246.604L57.2923 246.182C65.9249 243.94 73.3826 241.999 71.4651 231.725C70.6492 227.566 68.0627 223.924 63.8688 221.188C57.5453 217.061 47.9009 215.272 40.4106 216.838C28.555 219.264 17.0258 228.473 5.92092 237.387C3.06517 239.669 0.209391 241.928 -2.55664 244.059V241.021C-0.272012 239.248 2.03709 237.403 4.37066 235.542C15.7203 226.453 27.4617 217.053 39.8476 214.469C41.9347 214.04 44.0627 213.829 46.1956 213.84C52.9112 213.816 59.494 215.665 65.1661 219.168C69.923 222.27 72.9094 226.453 73.8069 231.264C76.1486 243.669 66.439 246.222 57.8716 248.441Z" fill="#074EBA"/>
</g>
</mask>
<g mask="url(#mask0_18_38030)">
<rect width="400" height="400" rx="200" transform="matrix(-1 0 0 1 399.604 1.13281)" fill="#033F47" fill-opacity="0.05"/>
</g>
<defs>
<clipPath id="clip0_18_38030">
<rect width="400" height="400" fill="white" transform="matrix(1 0 0 -1 0 400.5)"/>
</clipPath>
</defs>
</svg>
